<svg xmlns="http://www.w3.org/2000/svg" width="13.249" height="13.249" viewBox="0 0 13.249 13.249"><defs><style>.a{fill:#505050;stroke:#505050;}</style></defs><g transform="translate(0.563 0.563)"><path class="a" d="M11.952,1.076,11.115.249a.6.6,0,0,0-.837,0L6.1,4.426,1.845.17a.6.6,0,0,0-.837,0L.17,1.008a.6.6,0,0,0,0,.837L4.416,6.091.249,10.278a.6.6,0,0,0,0,.837l.837.837a.6.6,0,0,0,.837,0L6.1,7.775l4.177,4.177a.6.6,0,0,0,.837,0l.837-.837a.6.6,0,0,0,0-.837L7.765,6.1l4.177-4.177A.6.6,0,0,0,11.952,1.076Z"/></g></svg>