<svg width="28" height="30" viewBox="0 0 28 30" fill="none" xmlns="http://www.w3.org/2000/svg">
<path d="M21.98 4.52L19.4425 7.0575C20.9846 7.986 22.2605 9.29723 23.1466 10.864C24.0327 12.4308 24.4989 14.2 24.5 16C24.5 18.7848 23.3938 21.4555 21.4246 23.4246C19.4555 25.3938 16.7848 26.5 14 26.5C11.2152 26.5 8.54452 25.3938 6.57539 23.4246C4.60625 21.4555 3.50001 18.7848 3.50001 16C3.50001 12.2025 5.53001 8.895 8.54001 7.04L6.02001 4.52C4.16132 5.80238 2.64222 7.51735 1.59351 9.5172C0.544808 11.5171 -0.00205978 13.7419 5.8299e-06 16C5.8299e-06 19.713 1.475 23.274 4.10051 25.8995C6.72602 28.525 10.287 30 14 30C17.713 30 21.274 28.525 23.8995 25.8995C26.525 23.274 28 19.713 28 16C28 11.24 25.62 7.04 21.98 4.52ZM15.75 0.25H12.25V17.75H15.75" fill="white"/>
</svg>
