
<svg xmlns="http://www.w3.org/2000/svg" width="21.6" height="19.935" viewBox="0 0 21.6 19.935"><defs><style>.a{fill:#fff;stroke:#fff;stroke-width:0.5px;}</style></defs><g transform="translate(-1.97 -3.75)"><g transform="translate(2.223 4)"><path class="a" d="M12,11A4.5,4.5,0,1,0,7.5,6.5,4.505,4.505,0,0,0,12,11Zm0-7A2.5,2.5,0,1,1,9.5,6.5,2.5,2.5,0,0,1,12,4Z" transform="translate(-1.453 -2)"/><path class="a" d="M23.291,20.778A10.587,10.587,0,0,0,12.77,13,10.585,10.585,0,0,0,2.25,20.778a1,1,0,0,0,.813,1.2,1.086,1.086,0,0,0,1.29-.754A8.468,8.468,0,0,1,12.77,15a8.468,8.468,0,0,1,8.416,6.222A1.064,1.064,0,0,0,22.237,22a1.251,1.251,0,0,0,.241-.024A1,1,0,0,0,23.291,20.778Z" transform="translate(-2.223 -2.583)"/></g></g></svg>